# xmcd
#
# Track frame offsets:
#	182
#	17320
#	32605
#	45400
#	60850
#	70375
#	82582
#	98305
#	110915
#	128007
#	137440
#	147977
#
# Disc length: 2140 seconds
#
# Revision: 0
# Processed by: cddbd v1.4PL0 Copyright (c) Steve Scherf et al.
# Submitted via: audiograbber 1.81.01
#
DISCID=87085a0c
DTITLE=I Nuovi Angeli - I grandi successi originali cd1
DYEAR=1900
DGENRE=pop
TTITLE0=Anna da dimenticare
TTITLE1=Carovana
TTITLE2=Color cioccolata
TTITLE3=Cuori antipatici
TTITLE4=Donna felicità
TTITLE5=Hello,come stai?
TTITLE6=Samarcanda
TTITLE7=Ragazzina ragazzina
TTITLE8=Voi del '96
TTITLE9=Uakadì uakadù
TTITLE10=Ob-la-dì ob-la-dà
TTITLE11=Questo è un addio
EXTD=
EXTT0=
EXTT1=
EXTT2=
EXTT3=
EXTT4=
EXTT5=
EXTT6=
EXTT7=
EXTT8=
EXTT9=
EXTT10=
EXTT11=
PLAYORDER=
